<?xml version="1.0" encoding="UTF-8" standalone="no"?><!DOCTYPE svg PUBLIC "-//W3C//DTD SVG 1.1//EN" "http://www.w3.org/Graphics/SVG/1.1/DTD/svg11.dtd"><svg width="100%" height="100%" viewBox="0 0 96 96" version="1.1" xmlns="http://www.w3.org/2000/svg" xmlns:xlink="http://www.w3.org/1999/xlink" xml:space="preserve" xmlns:serif="http://www.serif.com/" style="fill-rule:evenodd;clip-rule:evenodd;stroke-linecap:round;stroke-linejoin:round;"><circle cx="48" cy="48" r="46.641" style="fill:#d9d8d8;"/><g id="g4211"><path id="path4196" d="M26.065,28.991c-4.621,0.033 -9.24,1.999 -12.489,5.405c-5.821,5.832 -6.976,15.626 -3.126,22.896c3.285,6.577 10.737,10.571 17.873,9.562c6.327,-0.76 11.662,-5.458 14.11,-11.374l4.53,2.599c1.326,0.827 2.07,-0.211 2.07,-1.426l-0.087,-4.855l5.152,0.119l3.502,3.296l4.559,-4.616l4.168,3.978l3.082,0l4.269,-4.277l3.091,2.613l3.933,-0.165l3.413,-3.28l3.674,-3.385c-0.623,-2.075 -2.399,-3.359 -5.659,-4.792l-33.43,0.264l-0.203,-3.697c-0.016,-1.32 -1.601,-1.875 -2.634,-1.188l-3.763,3.073c-1.981,-4.295 -5.498,-7.846 -9.855,-9.562c-1.974,-0.828 -4.079,-1.202 -6.18,-1.188l0,0Z" style="fill:#eeab2a;fill-rule:nonzero;stroke:#000;stroke-width:0.95px;"/><path id="path4192" d="M22.041,47.427c0.05,1.947 -1.525,3.839 -3.54,4.069c-1.625,0.217 -3.324,-0.647 -4.072,-2.066c-0.877,-1.569 -0.613,-3.682 0.713,-4.941c1.076,-1.069 2.812,-1.479 4.25,-0.907c1.508,0.562 2.58,2.037 2.642,3.604c0.005,0.08 0.007,0.16 0.007,0.241l0,0Z" style="fill:#00a1ff;fill-rule:nonzero;stroke:#000;stroke-width:0.95px;"/><path id="path4201" d="M40.695,47.508l46.139,-0.569l-2.161,1.592l-38.894,0.569l-5.084,-1.592Z" style="fill:#00a1ff;fill-rule:nonzero;stroke:#000;stroke-width:0.48px;"/></g></svg>